<svg xmlns="http://www.w3.org/2000/svg" viewBox="0 0 232 200" fill="#efefef">
<title>Знак коллегии «Шериев и партнеры»</title>
<path d="M111 5q5-2 10 0l101 43q5 2 5 7t-7 5H12q-7 0-7-5t5-7Z"/>
<path d="M31 73h38a5 5 0 0 1 0 10h-2v82h2a5 5 0 0 1 0 10H31a5 5 0 0 1 0-10h2V83h-2a5 5 0 0 1 0-10Zm66 0h38a5 5 0 0 1 0 10h-2v82h2a5 5 0 0 1 0 10H97a5 5 0 0 1 0-10h2V83h-2a5 5 0 0 1 0-10Zm66 0h38a5 5 0 0 1 0 10h-2v82h2a5 5 0 0 1 0 10h-38a5 5 0 0 1 0-10h2V83h-2a5 5 0 0 1 0-10Z"/>
<rect x="12" y="174" width="208" height="10" rx="5"/>
<rect x="0" y="190" width="232" height="10" rx="5"/>
</svg>
